solid OpenSCAD_Model
  facet normal 1 -0 0
    outer loop
      vertex 10 0 6
      vertex 10 10 0
      vertex 10 10 6
    endloop
  endfacet
  facet normal 1 0 0
    outer loop
      vertex 10 10 0
      vertex 10 0 6
      vertex 10 0 0
    endloop
  endfacet
  facet normal 0 0 1
    outer loop
      vertex 10 10 6
      vertex 6.75 5 6
      vertex 10 0 6
    endloop
  endfacet
  facet normal 0 0 1
    outer loop
      vertex 10 10 6
      vertex 6.66435 5.54078 6
      vertex 6.75 5 6
    endloop
  endfacet
  facet normal 0 0 1
    outer loop
      vertex 10 10 6
      vertex 6.41578 6.02862 6
      vertex 6.66435 5.54078 6
    endloop
  endfacet
  facet normal 0 0 1
    outer loop
      vertex 10 10 6
      vertex 6.02862 6.41578 6
      vertex 6.41578 6.02862 6
    endloop
  endfacet
  facet normal 0 0 1
    outer loop
      vertex 10 10 6
      vertex 5.54078 6.66435 6
      vertex 6.02862 6.41578 6
    endloop
  endfacet
  facet normal 0 0 1
    outer loop
      vertex 10 10 6
      vertex 5 6.75 6
      vertex 5.54078 6.66435 6
    endloop
  endfacet
  facet normal -0 0 1
    outer loop
      vertex 0 10 6
      vertex 5 6.75 6
      vertex 10 10 6
    endloop
  endfacet
  facet normal 0 0 1
    outer loop
      vertex 5 6.75 6
      vertex 0 10 6
      vertex 4.45922 6.66435 6
    endloop
  endfacet
  facet normal 0 0 1
    outer loop
      vertex 3.33565 5.54078 6
      vertex 0 10 6
      vertex 3.25 5 6
    endloop
  endfacet
  facet normal 0 0 1
    outer loop
      vertex 3.58422 6.02862 6
      vertex 0 10 6
      vertex 3.33565 5.54078 6
    endloop
  endfacet
  facet normal 0 0 1
    outer loop
      vertex 3.97138 6.41578 6
      vertex 0 10 6
      vertex 3.58422 6.02862 6
    endloop
  endfacet
  facet normal 0 0 1
    outer loop
      vertex 4.45922 6.66435 6
      vertex 0 10 6
      vertex 3.97138 6.41578 6
    endloop
  endfacet
  facet normal -0 0 1
    outer loop
      vertex 6.66435 4.45922 6
      vertex 10 0 6
      vertex 6.75 5 6
    endloop
  endfacet
  facet normal -0 0 1
    outer loop
      vertex 6.41578 3.97138 6
      vertex 10 0 6
      vertex 6.66435 4.45922 6
    endloop
  endfacet
  facet normal -0 0 1
    outer loop
      vertex 6.02862 3.58422 6
      vertex 10 0 6
      vertex 6.41578 3.97138 6
    endloop
  endfacet
  facet normal -0 0 1
    outer loop
      vertex 5.54078 3.33565 6
      vertex 10 0 6
      vertex 6.02862 3.58422 6
    endloop
  endfacet
  facet normal -0 0 1
    outer loop
      vertex 5 3.25 6
      vertex 10 0 6
      vertex 5.54078 3.33565 6
    endloop
  endfacet
  facet normal 0 0 1
    outer loop
      vertex 0 0 6
      vertex 5 3.25 6
      vertex 4.45922 3.33565 6
    endloop
  endfacet
  facet normal 0 0 1
    outer loop
      vertex 0 0 6
      vertex 4.45922 3.33565 6
      vertex 3.97138 3.58422 6
    endloop
  endfacet
  facet normal 0 0 1
    outer loop
      vertex 0 0 6
      vertex 3.25 5 6
      vertex 0 10 6
    endloop
  endfacet
  facet normal 0 0 1
    outer loop
      vertex 3.25 5 6
      vertex 0 0 6
      vertex 3.33565 4.45922 6
    endloop
  endfacet
  facet normal 0 0 1
    outer loop
      vertex 5 3.25 6
      vertex 0 0 6
      vertex 10 0 6
    endloop
  endfacet
  facet normal 0 0 1
    outer loop
      vertex 3.58422 3.97138 6
      vertex 0 0 6
      vertex 3.97138 3.58422 6
    endloop
  endfacet
  facet normal 0 0 1
    outer loop
      vertex 3.33565 4.45922 6
      vertex 0 0 6
      vertex 3.58422 3.97138 6
    endloop
  endfacet
  facet normal 0 0 -1
    outer loop
      vertex 10 0 0
      vertex 6.75 5 0
      vertex 10 10 0
    endloop
  endfacet
  facet normal 0 0 -1
    outer loop
      vertex 10 0 0
      vertex 6.66435 4.45922 0
      vertex 6.75 5 0
    endloop
  endfacet
  facet normal 0 0 -1
    outer loop
      vertex 10 0 0
      vertex 6.41578 3.97138 0
      vertex 6.66435 4.45922 0
    endloop
  endfacet
  facet normal 0 0 -1
    outer loop
      vertex 10 0 0
      vertex 6.02862 3.58422 0
      vertex 6.41578 3.97138 0
    endloop
  endfacet
  facet normal 0 0 -1
    outer loop
      vertex 10 0 0
      vertex 5.54078 3.33565 0
      vertex 6.02862 3.58422 0
    endloop
  endfacet
  facet normal 0 0 -1
    outer loop
      vertex 10 0 0
      vertex 5 3.25 0
      vertex 5.54078 3.33565 0
    endloop
  endfacet
  facet normal 0 0 -1
    outer loop
      vertex 0 0 0
      vertex 5 3.25 0
      vertex 10 0 0
    endloop
  endfacet
  facet normal -0 0 -1
    outer loop
      vertex 5 3.25 0
      vertex 0 0 0
      vertex 4.45922 3.33565 0
    endloop
  endfacet
  facet normal -0 0 -1
    outer loop
      vertex 3.33565 4.45922 0
      vertex 0 0 0
      vertex 3.25 5 0
    endloop
  endfacet
  facet normal -0 0 -1
    outer loop
      vertex 3.58422 3.97138 0
      vertex 0 0 0
      vertex 3.33565 4.45922 0
    endloop
  endfacet
  facet normal -0 0 -1
    outer loop
      vertex 3.97138 3.58422 0
      vertex 0 0 0
      vertex 3.58422 3.97138 0
    endloop
  endfacet
  facet normal -0 0 -1
    outer loop
      vertex 4.45922 3.33565 0
      vertex 0 0 0
      vertex 3.97138 3.58422 0
    endloop
  endfacet
  facet normal 0 0 -1
    outer loop
      vertex 6.66435 5.54078 0
      vertex 10 10 0
      vertex 6.75 5 0
    endloop
  endfacet
  facet normal 0 0 -1
    outer loop
      vertex 6.41578 6.02862 0
      vertex 10 10 0
      vertex 6.66435 5.54078 0
    endloop
  endfacet
  facet normal 0 0 -1
    outer loop
      vertex 6.02862 6.41578 0
      vertex 10 10 0
      vertex 6.41578 6.02862 0
    endloop
  endfacet
  facet normal 0 0 -1
    outer loop
      vertex 5.54078 6.66435 0
      vertex 10 10 0
      vertex 6.02862 6.41578 0
    endloop
  endfacet
  facet normal 0 0 -1
    outer loop
      vertex 5 6.75 0
      vertex 10 10 0
      vertex 5.54078 6.66435 0
    endloop
  endfacet
  facet normal 0 0 -1
    outer loop
      vertex 0 10 0
      vertex 5 6.75 0
      vertex 4.45922 6.66435 0
    endloop
  endfacet
  facet normal 0 0 -1
    outer loop
      vertex 0 10 0
      vertex 4.45922 6.66435 0
      vertex 3.97138 6.41578 0
    endloop
  endfacet
  facet normal 0 0 -1
    outer loop
      vertex 0 10 0
      vertex 3.25 5 0
      vertex 0 0 0
    endloop
  endfacet
  facet normal 0 0 -1
    outer loop
      vertex 3.25 5 0
      vertex 0 10 0
      vertex 3.33565 5.54078 0
    endloop
  endfacet
  facet normal 0 0 -1
    outer loop
      vertex 5 6.75 0
      vertex 0 10 0
      vertex 10 10 0
    endloop
  endfacet
  facet normal 0 0 -1
    outer loop
      vertex 3.58422 6.02862 0
      vertex 0 10 0
      vertex 3.97138 6.41578 0
    endloop
  endfacet
  facet normal 0 0 -1
    outer loop
      vertex 3.33565 5.54078 0
      vertex 0 10 0
      vertex 3.58422 6.02862 0
    endloop
  endfacet
  facet normal -1 0 0
    outer loop
      vertex 0 0 0
      vertex 0 10 6
      vertex 0 10 0
    endloop
  endfacet
  facet normal -1 -0 0
    outer loop
      vertex 0 10 6
      vertex 0 0 0
      vertex 0 0 6
    endloop
  endfacet
  facet normal 0 1 -0
    outer loop
      vertex 10 10 0
      vertex 0 10 6
      vertex 10 10 6
    endloop
  endfacet
  facet normal 0 1 0
    outer loop
      vertex 0 10 6
      vertex 10 10 0
      vertex 0 10 0
    endloop
  endfacet
  facet normal 0 -1 0
    outer loop
      vertex 0 0 0
      vertex 10 0 6
      vertex 0 0 6
    endloop
  endfacet
  facet normal 0 -1 -0
    outer loop
      vertex 10 0 6
      vertex 0 0 0
      vertex 10 0 0
    endloop
  endfacet
  facet normal -0.987689 -0.156432 0
    outer loop
      vertex 6.75 5 0
      vertex 6.66435 5.54078 6
      vertex 6.66435 5.54078 0
    endloop
  endfacet
  facet normal -0.987689 -0.156432 0
    outer loop
      vertex 6.66435 5.54078 6
      vertex 6.75 5 0
      vertex 6.75 5 6
    endloop
  endfacet
  facet normal -0.891004 -0.453995 0
    outer loop
      vertex 6.66435 5.54078 0
      vertex 6.41578 6.02862 6
      vertex 6.41578 6.02862 0
    endloop
  endfacet
  facet normal -0.891004 -0.453995 0
    outer loop
      vertex 6.41578 6.02862 6
      vertex 6.66435 5.54078 0
      vertex 6.66435 5.54078 6
    endloop
  endfacet
  facet normal -0.453995 0.891004 0
    outer loop
      vertex 6.02862 3.58422 0
      vertex 5.54078 3.33565 6
      vertex 6.02862 3.58422 6
    endloop
  endfacet
  facet normal -0.453995 0.891004 0
    outer loop
      vertex 5.54078 3.33565 6
      vertex 6.02862 3.58422 0
      vertex 5.54078 3.33565 0
    endloop
  endfacet
  facet normal -0.707107 -0.707107 0
    outer loop
      vertex 6.41578 6.02862 0
      vertex 6.02862 6.41578 6
      vertex 6.02862 6.41578 0
    endloop
  endfacet
  facet normal -0.707107 -0.707107 0
    outer loop
      vertex 6.02862 6.41578 6
      vertex 6.41578 6.02862 0
      vertex 6.41578 6.02862 6
    endloop
  endfacet
  facet normal 0.156432 -0.987689 0
    outer loop
      vertex 4.45922 6.66435 0
      vertex 5 6.75 6
      vertex 4.45922 6.66435 6
    endloop
  endfacet
  facet normal 0.156432 -0.987689 0
    outer loop
      vertex 5 6.75 6
      vertex 4.45922 6.66435 0
      vertex 5 6.75 0
    endloop
  endfacet
  facet normal 0.987689 0.156432 0
    outer loop
      vertex 3.33565 4.45922 6
      vertex 3.25 5 0
      vertex 3.25 5 6
    endloop
  endfacet
  facet normal 0.987689 0.156432 0
    outer loop
      vertex 3.25 5 0
      vertex 3.33565 4.45922 6
      vertex 3.33565 4.45922 0
    endloop
  endfacet
  facet normal 0.156432 0.987689 -0
    outer loop
      vertex 5 3.25 0
      vertex 4.45922 3.33565 6
      vertex 5 3.25 6
    endloop
  endfacet
  facet normal 0.156432 0.987689 0
    outer loop
      vertex 4.45922 3.33565 6
      vertex 5 3.25 0
      vertex 4.45922 3.33565 0
    endloop
  endfacet
  facet normal -0.156432 -0.987689 0
    outer loop
      vertex 5 6.75 0
      vertex 5.54078 6.66435 6
      vertex 5 6.75 6
    endloop
  endfacet
  facet normal -0.156432 -0.987689 -0
    outer loop
      vertex 5.54078 6.66435 6
      vertex 5 6.75 0
      vertex 5.54078 6.66435 0
    endloop
  endfacet
  facet normal 0.891004 0.453995 0
    outer loop
      vertex 3.58422 3.97138 6
      vertex 3.33565 4.45922 0
      vertex 3.33565 4.45922 6
    endloop
  endfacet
  facet normal 0.891004 0.453995 0
    outer loop
      vertex 3.33565 4.45922 0
      vertex 3.58422 3.97138 6
      vertex 3.58422 3.97138 0
    endloop
  endfacet
  facet normal 0.453995 -0.891004 0
    outer loop
      vertex 3.97138 6.41578 0
      vertex 4.45922 6.66435 6
      vertex 3.97138 6.41578 6
    endloop
  endfacet
  facet normal 0.453995 -0.891004 0
    outer loop
      vertex 4.45922 6.66435 6
      vertex 3.97138 6.41578 0
      vertex 4.45922 6.66435 0
    endloop
  endfacet
  facet normal 0.707107 0.707107 0
    outer loop
      vertex 3.97138 3.58422 6
      vertex 3.58422 3.97138 0
      vertex 3.58422 3.97138 6
    endloop
  endfacet
  facet normal 0.707107 0.707107 0
    outer loop
      vertex 3.58422 3.97138 0
      vertex 3.97138 3.58422 6
      vertex 3.97138 3.58422 0
    endloop
  endfacet
  facet normal 0.987689 -0.156432 0
    outer loop
      vertex 3.25 5 6
      vertex 3.33565 5.54078 0
      vertex 3.33565 5.54078 6
    endloop
  endfacet
  facet normal 0.987689 -0.156432 0
    outer loop
      vertex 3.33565 5.54078 0
      vertex 3.25 5 6
      vertex 3.25 5 0
    endloop
  endfacet
  facet normal -0.156432 0.987689 0
    outer loop
      vertex 5.54078 3.33565 0
      vertex 5 3.25 6
      vertex 5.54078 3.33565 6
    endloop
  endfacet
  facet normal -0.156432 0.987689 0
    outer loop
      vertex 5 3.25 6
      vertex 5.54078 3.33565 0
      vertex 5 3.25 0
    endloop
  endfacet
  facet normal -0.987689 0.156432 0
    outer loop
      vertex 6.66435 4.45922 0
      vertex 6.75 5 6
      vertex 6.75 5 0
    endloop
  endfacet
  facet normal -0.987689 0.156432 0
    outer loop
      vertex 6.75 5 6
      vertex 6.66435 4.45922 0
      vertex 6.66435 4.45922 6
    endloop
  endfacet
  facet normal 0.891004 -0.453995 0
    outer loop
      vertex 3.33565 5.54078 6
      vertex 3.58422 6.02862 0
      vertex 3.58422 6.02862 6
    endloop
  endfacet
  facet normal 0.891004 -0.453995 0
    outer loop
      vertex 3.58422 6.02862 0
      vertex 3.33565 5.54078 6
      vertex 3.33565 5.54078 0
    endloop
  endfacet
  facet normal -0.453995 -0.891004 0
    outer loop
      vertex 5.54078 6.66435 0
      vertex 6.02862 6.41578 6
      vertex 5.54078 6.66435 6
    endloop
  endfacet
  facet normal -0.453995 -0.891004 -0
    outer loop
      vertex 6.02862 6.41578 6
      vertex 5.54078 6.66435 0
      vertex 6.02862 6.41578 0
    endloop
  endfacet
  facet normal -0.891004 0.453995 0
    outer loop
      vertex 6.41578 3.97138 0
      vertex 6.66435 4.45922 6
      vertex 6.66435 4.45922 0
    endloop
  endfacet
  facet normal -0.891004 0.453995 0
    outer loop
      vertex 6.66435 4.45922 6
      vertex 6.41578 3.97138 0
      vertex 6.41578 3.97138 6
    endloop
  endfacet
  facet normal 0.453995 0.891004 -0
    outer loop
      vertex 4.45922 3.33565 0
      vertex 3.97138 3.58422 6
      vertex 4.45922 3.33565 6
    endloop
  endfacet
  facet normal 0.453995 0.891004 0
    outer loop
      vertex 3.97138 3.58422 6
      vertex 4.45922 3.33565 0
      vertex 3.97138 3.58422 0
    endloop
  endfacet
  facet normal -0.707107 0.707107 0
    outer loop
      vertex 6.02862 3.58422 0
      vertex 6.41578 3.97138 6
      vertex 6.41578 3.97138 0
    endloop
  endfacet
  facet normal -0.707107 0.707107 0
    outer loop
      vertex 6.41578 3.97138 6
      vertex 6.02862 3.58422 0
      vertex 6.02862 3.58422 6
    endloop
  endfacet
  facet normal 0.707107 -0.707107 0
    outer loop
      vertex 3.58422 6.02862 6
      vertex 3.97138 6.41578 0
      vertex 3.97138 6.41578 6
    endloop
  endfacet
  facet normal 0.707107 -0.707107 0
    outer loop
      vertex 3.97138 6.41578 0
      vertex 3.58422 6.02862 6
      vertex 3.58422 6.02862 0
    endloop
  endfacet
endsolid OpenSCAD_Model
